<svg id="visual" viewBox="0 0 900 600" width="900" height="600" xmlns="http://www.w3.org/2000/svg" xmlns:xlink="http://www.w3.org/1999/xlink" version="1.1"><rect width="900" height="600" fill="#F5FCCD"></rect><g><g transform="translate(8 213)"><path d="M0 -65.7L51.4 -41L64 14.6L28.5 59.2L-28.5 59.2L-64 14.6L-51.4 -41Z" fill="none" stroke="#297EA6" stroke-width="2"></path></g><g transform="translate(121 371)"><path d="M0 -44L34.4 -27.4L42.9 9.8L19.1 39.6L-19.1 39.6L-42.9 9.8L-34.4 -27.4Z" fill="none" stroke="#297EA6" stroke-width="2"></path></g><g transform="translate(614 283)"><path d="M0 -51L39.9 -31.8L49.7 11.3L22.1 45.9L-22.1 45.9L-49.7 11.3L-39.9 -31.8Z" fill="none" stroke="#297EA6" stroke-width="2"></path></g><g transform="translate(485 532)"><path d="M0 -47L36.7 -29.3L45.8 10.5L20.4 42.3L-20.4 42.3L-45.8 10.5L-36.7 -29.3Z" fill="none" stroke="#297EA6" stroke-width="2"></path></g><g transform="translate(692 126)"><path d="M0 -47L36.7 -29.3L45.8 10.5L20.4 42.3L-20.4 42.3L-45.8 10.5L-36.7 -29.3Z" fill="none" stroke="#297EA6" stroke-width="2"></path></g><g transform="translate(721 392)"><path d="M0 -62L48.5 -38.7L60.4 13.8L26.9 55.9L-26.9 55.9L-60.4 13.8L-48.5 -38.7Z" fill="none" stroke="#297EA6" stroke-width="2"></path></g><g transform="translate(217 572)"><path d="M0 -36L28.1 -22.4L35.1 8L15.6 32.4L-15.6 32.4L-35.1 8L-28.1 -22.4Z" fill="none" stroke="#297EA6" stroke-width="2"></path></g><g transform="translate(735 574)"><path d="M0 -33L25.8 -20.6L32.2 7.3L14.3 29.7L-14.3 29.7L-32.2 7.3L-25.8 -20.6Z" fill="none" stroke="#297EA6" stroke-width="2"></path></g><g transform="translate(834 36)"><path d="M0 -62L48.5 -38.7L60.4 13.8L26.9 55.9L-26.9 55.9L-60.4 13.8L-48.5 -38.7Z" fill="none" stroke="#297EA6" stroke-width="2"></path></g><g transform="translate(92 47)"><path d="M0 -60L46.9 -37.4L58.5 13.4L26 54.1L-26 54.1L-58.5 13.4L-46.9 -37.4Z" fill="none" stroke="#297EA6" stroke-width="2"></path></g><g transform="translate(229 112)"><path d="M0 -50L39.1 -31.2L48.7 11.1L21.7 45L-21.7 45L-48.7 11.1L-39.1 -31.2Z" fill="none" stroke="#297EA6" stroke-width="2"></path></g><g transform="translate(867 208)"><path d="M0 -48L37.5 -29.9L46.8 10.7L20.8 43.2L-20.8 43.2L-46.8 10.7L-37.5 -29.9Z" fill="none" stroke="#297EA6" stroke-width="2"></path></g></g></svg>